<svg xmlns:xlink="http://www.w3.org/1999/xlink" aria-hidden="true" role="img" xmlns="http://www.w3.org/2000/svg" width="24" height="24" fill="none" viewBox="0 0 24 24"><circle cx="12" cy="12" r="10" fill="#000000" class="" data-darkreader-inline-fill="" style="--darkreader-inline-fill: transparent;" fill-opacity="0"></circle><path fill="#BDB7AF" fill-rule="evenodd" d="M12 23a11 11 0 1 0 0-22 11 11 0 0 0 0 22Zm0-17a1 1 0 0 1 1 1v4h4a1 1 0 1 1 0 2h-4v4a1 1 0 1 1-2 0v-4H7a1 1 0 1 1 0-2h4V7a1 1 0 0 1 1-1Z" clip-rule="evenodd" class="attachButtonPlus_bf89ca" data-darkreader-inline-fill="" style="--darkreader-inline-fill: var(--darkreader-text--interactive-normal);"></path></svg>