<?xml version="1.0" standalone="no"?>
<!DOCTYPE svg PUBLIC "-//W3C//DTD SVG 20010904//EN"
 "http://www.w3.org/TR/2001/REC-SVG-20010904/DTD/svg10.dtd">
<svg version="1.0" xmlns="http://www.w3.org/2000/svg"
 width="96.000000pt" height="96.000000pt" viewBox="0 0 96.000000 96.000000"
 preserveAspectRatio="xMidYMid meet">

<g transform="translate(0.000000,96.000000) scale(0.100000,-0.100000)" stroke="none" fill="#0645AD">
<path d="M119 812 c-77 -40 -114 -102 -114 -191 1 -42 7 -78 18 -98 13 -24 17
-57 17 -133 0 -94 2 -103 25 -125 13 -14 31 -25 39 -25 8 0 17 -13 21 -29 3
-15 20 -41 36 -57 43 -42 115 -42 158 0 16 16 33 42 36 57 l7 29 118 0 118 0
7 -29 c3 -15 20 -41 36 -57 43 -42 115 -42 158 0 16 16 33 42 36 57 4 16 13
29 21 29 8 0 26 11 39 25 22 21 25 33 25 100 0 72 -3 81 -56 188 -31 61 -62
115 -68 119 -6 4 -44 8 -83 8 -59 0 -73 3 -73 15 0 9 -11 27 -25 40 -22 23
-31 25 -120 25 -87 0 -99 2 -129 25 -82 62 -163 71 -247 27z m171 -62 c45 -23
80 -80 80 -130 0 -76 -74 -150 -151 -150 -73 0 -149 76 -149 150 0 48 35 107
78 129 48 26 93 26 142 1z m508 -225 l42 -85 -100 0 -100 0 0 85 0 85 58 0 58
0 42 -85z m-524 -251 c31 -30 9 -84 -34 -84 -24 0 -50 26 -50 50 0 10 7 26 16
34 8 9 24 16 34 16 10 0 26 -7 34 -16z m480 0 c31 -30 9 -84 -34 -84 -24 0
-50 26 -50 50 0 24 26 50 50 50 10 0 26 -7 34 -16z"/>
<path d="M210 685 c-25 -65 -24 -75 11 -111 l33 -34 23 22 23 22 -22 23 c-19
20 -20 27 -11 57 10 31 9 35 -11 40 -33 9 -36 8 -46 -19z"/>
</g>
</svg>
